<svg width="362" height="145" viewBox="0 0 362 145" fill="none" xmlns="http://www.w3.org/2000/svg">
<g filter="url(#filter0_d_31_2)">
<rect x="35" y="25" width="282" height="65" rx="32.5" fill="#00C9E0"/>
</g>
<path d="M84.9912 62V52.1973H88.0195C89.0632 52.1973 89.8971 52.4844 90.5215 53.0586C91.1504 53.6328 91.4648 54.387 91.4648 55.3213C91.4648 55.9274 91.3145 56.4606 91.0137 56.9209C90.7174 57.3812 90.2982 57.7344 89.7559 57.9805L91.8818 62H89.6807L87.7803 58.3291H86.9121V62H84.9912ZM86.9121 56.627H88.0195C88.4753 56.627 88.833 56.5153 89.0928 56.292C89.3571 56.0687 89.4893 55.7451 89.4893 55.3213C89.4893 54.8883 89.3571 54.5602 89.0928 54.3369C88.833 54.109 88.4753 53.9951 88.0195 53.9951H86.9121V56.627ZM95.2123 62V52.1973H100.859V53.9951H97.1332V56.0664H100.353V57.8711H97.1332V60.209H100.859V62H95.2123ZM103.793 62L107.587 52.1973H109.699L113.493 62H111.408L110.595 59.833H106.691L105.878 62H103.793ZM107.293 58.1514H109.979L108.817 55.082L108.633 54.5352L108.455 55.082L107.293 58.1514ZM116.789 62V52.1973H120.46C121.221 52.1973 121.918 52.318 122.552 52.5596C123.19 52.7965 123.725 53.1292 124.158 53.5576C124.591 53.986 124.926 54.5033 125.163 55.1094C125.405 55.7155 125.526 56.3786 125.526 57.0986C125.526 57.8187 125.405 58.4818 125.163 59.0879C124.926 59.694 124.591 60.2113 124.158 60.6396C123.725 61.068 123.19 61.403 122.552 61.6445C121.918 61.8815 121.221 62 120.46 62H116.789ZM118.71 60.209H120.46C121.435 60.209 122.19 59.9378 122.723 59.3955C123.256 58.8532 123.523 58.0876 123.523 57.0986C123.523 56.1143 123.256 55.3509 122.723 54.8086C122.194 54.2663 121.44 53.9951 120.46 53.9951H118.71V60.209ZM134.019 62V52.1973H136.233L139.036 58.5137L139.241 59.0879L139.467 58.5137L142.283 52.1973H144.505V62H142.577V55.7998L142.297 56.6543L140.068 62H138.448L136.22 56.6543L135.939 55.7998V62H134.019ZM148.102 57.085C148.102 56.3604 148.227 55.6859 148.478 55.0615C148.729 54.4372 149.075 53.9017 149.517 53.4551C149.964 53.0085 150.501 52.6576 151.13 52.4023C151.764 52.1471 152.447 52.0195 153.181 52.0195C154.156 52.0195 155.029 52.2383 155.799 52.6758C156.574 53.1087 157.176 53.7103 157.604 54.4805C158.037 55.2507 158.253 56.1188 158.253 57.085C158.253 58.0557 158.037 58.9284 157.604 59.7031C157.176 60.4779 156.574 61.0863 155.799 61.5283C155.029 61.9658 154.156 62.1846 153.181 62.1846C152.201 62.1846 151.324 61.9658 150.549 61.5283C149.774 61.0863 149.173 60.4779 148.745 59.7031C148.316 58.9284 148.102 58.0557 148.102 57.085ZM150.105 57.085C150.105 58.0511 150.387 58.8441 150.953 59.4639C151.518 60.0791 152.26 60.3867 153.181 60.3867C154.097 60.3867 154.838 60.0768 155.403 59.457C155.968 58.8372 156.25 58.0465 156.25 57.085C156.25 56.1325 155.968 55.3486 155.403 54.7334C154.838 54.1182 154.097 53.8105 153.181 53.8105C152.26 53.8105 151.518 54.1182 150.953 54.7334C150.387 55.3486 150.105 56.1325 150.105 57.085ZM161.857 62V52.1973H164.886C165.929 52.1973 166.763 52.4844 167.387 53.0586C168.016 53.6328 168.331 54.387 168.331 55.3213C168.331 55.9274 168.18 56.4606 167.88 56.9209C167.583 57.3812 167.164 57.7344 166.622 57.9805L168.748 62H166.547L164.646 58.3291H163.778V62H161.857ZM163.778 56.627H164.886C165.341 56.627 165.699 56.5153 165.959 56.292C166.223 56.0687 166.355 55.7451 166.355 55.3213C166.355 54.8883 166.223 54.5602 165.959 54.3369C165.699 54.109 165.341 53.9951 164.886 53.9951H163.778V56.627ZM172.078 62V52.1973H177.725V53.9951H173.999V56.0664H177.219V57.8711H173.999V60.209H177.725V62H172.078ZM185.521 62L189.314 52.1973H191.427L195.221 62H193.136L192.322 59.833H188.419L187.605 62H185.521ZM189.021 58.1514H191.707L190.545 55.082L190.36 54.5352L190.183 55.082L189.021 58.1514ZM198.517 62V52.1973H201.641C202.63 52.1973 203.414 52.4479 203.993 52.9492C204.571 53.4505 204.861 54.1341 204.861 55C204.861 55.8249 204.576 56.4606 204.006 56.9072C204.439 57.0941 204.781 57.3789 205.032 57.7617C205.282 58.1445 205.408 58.5957 205.408 59.1152C205.408 59.9857 205.107 60.6852 204.505 61.2139C203.908 61.738 203.104 62 202.092 62H198.517ZM200.438 60.209H202.092C202.502 60.209 202.824 60.1087 203.056 59.9082C203.288 59.7031 203.405 59.416 203.405 59.0469C203.405 58.6777 203.288 58.3952 203.056 58.1992C202.828 57.9987 202.507 57.8984 202.092 57.8984H200.438V60.209ZM200.438 56.2168H201.655C202.037 56.2168 202.338 56.1211 202.557 55.9297C202.776 55.7337 202.885 55.4694 202.885 55.1367C202.885 54.7585 202.776 54.4736 202.557 54.2822C202.343 54.0908 202.037 53.9951 201.641 53.9951H200.438V56.2168ZM208.499 57.085C208.499 56.3604 208.624 55.6859 208.875 55.0615C209.125 54.4372 209.472 53.9017 209.914 53.4551C210.36 53.0085 210.898 52.6576 211.527 52.4023C212.161 52.1471 212.844 52.0195 213.578 52.0195C214.553 52.0195 215.426 52.2383 216.196 52.6758C216.971 53.1087 217.572 53.7103 218.001 54.4805C218.434 55.2507 218.65 56.1188 218.65 57.085C218.65 58.0557 218.434 58.9284 218.001 59.7031C217.572 60.4779 216.971 61.0863 216.196 61.5283C215.426 61.9658 214.553 62.1846 213.578 62.1846C212.598 62.1846 211.721 61.9658 210.946 61.5283C210.171 61.0863 209.57 60.4779 209.141 59.7031C208.713 58.9284 208.499 58.0557 208.499 57.085ZM210.502 57.085C210.502 58.0511 210.784 58.8441 211.349 59.4639C211.915 60.0791 212.657 60.3867 213.578 60.3867C214.494 60.3867 215.235 60.0768 215.8 59.457C216.365 58.8372 216.647 58.0465 216.647 57.085C216.647 56.1325 216.365 55.3486 215.8 54.7334C215.235 54.1182 214.494 53.8105 213.578 53.8105C212.657 53.8105 211.915 54.1182 211.349 54.7334C210.784 55.3486 210.502 56.1325 210.502 57.085ZM222.131 58.0488V52.1973H224.066V58.0488C224.066 58.8008 224.234 59.3796 224.571 59.7852C224.913 60.1862 225.431 60.3867 226.123 60.3867C226.807 60.3867 227.317 60.1862 227.654 59.7852C227.996 59.3841 228.167 58.8053 228.167 58.0488V52.1973H230.095V58.0488C230.095 59.3613 229.749 60.3799 229.056 61.1045C228.368 61.8245 227.39 62.1846 226.123 62.1846C224.852 62.1846 223.867 61.8245 223.17 61.1045C222.477 60.3799 222.131 59.3613 222.131 58.0488ZM233.227 53.9951V52.1973H241.526V53.9951H238.334V62H236.413V53.9951H233.227ZM249.513 58.0488V52.1973H251.448V58.0488C251.448 58.8008 251.616 59.3796 251.954 59.7852C252.295 60.1862 252.813 60.3867 253.505 60.3867C254.189 60.3867 254.699 60.1862 255.037 59.7852C255.378 59.3841 255.549 58.8053 255.549 58.0488V52.1973H257.477V58.0488C257.477 59.3613 257.131 60.3799 256.438 61.1045C255.75 61.8245 254.772 62.1846 253.505 62.1846C252.234 62.1846 251.249 61.8245 250.552 61.1045C249.859 60.3799 249.513 59.3613 249.513 58.0488ZM260.958 59.0059H262.899C262.922 59.4889 263.063 59.8581 263.323 60.1133C263.583 60.3639 263.957 60.4893 264.444 60.4893C264.845 60.4893 265.16 60.3867 265.387 60.1816C265.615 59.9766 265.729 59.71 265.729 59.3818C265.729 59.0583 265.595 58.7894 265.326 58.5752C265.057 58.3564 264.613 58.1445 263.993 57.9395C263.045 57.6341 262.339 57.2536 261.874 56.7979C261.409 56.3421 261.177 55.7246 261.177 54.9453C261.177 54.0749 261.455 53.3708 262.011 52.833C262.567 52.2907 263.321 52.0195 264.273 52.0195C265.207 52.0195 265.946 52.2679 266.488 52.7646C267.035 53.2614 267.329 53.9883 267.37 54.9453H265.422C265.408 54.5625 265.292 54.264 265.073 54.0498C264.854 53.8356 264.574 53.7285 264.232 53.7285C263.886 53.7285 263.615 53.8197 263.419 54.002C263.223 54.1842 263.125 54.4417 263.125 54.7744C263.125 54.9567 263.154 55.1139 263.214 55.2461C263.277 55.3737 263.389 55.4922 263.549 55.6016C263.713 55.7109 263.884 55.8044 264.061 55.8818C264.244 55.9593 264.506 56.0573 264.847 56.1758C265.877 56.5221 266.607 56.93 267.035 57.3994C267.463 57.8643 267.678 58.4681 267.678 59.2109C267.678 60.1315 267.37 60.8584 266.755 61.3916C266.144 61.9202 265.365 62.1846 264.417 62.1846C263.328 62.1846 262.485 61.8952 261.887 61.3164C261.295 60.7376 260.985 59.9674 260.958 59.0059Z" fill="white"/>
<rect x="302" y="57" width="30" height="2" rx="1" fill="white"/>
<defs>
<filter id="filter0_d_31_2" x="0" y="0" width="362" height="145" filterUnits="userSpaceOnUse" color-interpolation-filters="sRGB">
<feFlood flood-opacity="0" result="BackgroundImageFix"/>
<feColorMatrix in="SourceAlpha" type="matrix" values="0 0 0 0 0 0 0 0 0 0 0 0 0 0 0 0 0 0 127 0" result="hardAlpha"/>
<feOffset dx="5" dy="15"/>
<feGaussianBlur stdDeviation="20"/>
<feColorMatrix type="matrix" values="0 0 0 0 0 0 0 0 0 0.788235 0 0 0 0 0.878431 0 0 0 0.2 0"/>
<feBlend mode="normal" in2="BackgroundImageFix" result="effect1_dropShadow_31_2"/>
<feBlend mode="normal" in="SourceGraphic" in2="effect1_dropShadow_31_2" result="shape"/>
</filter>
</defs>
</svg>
