<svg width="362" height="145" viewBox="0 0 362 145" fill="none" xmlns="http://www.w3.org/2000/svg">
<g filter="url(#filter0_d_21_62)">
<rect x="35" y="25" width="282" height="65" rx="32.5" fill="#00C9E0"/>
</g>
<path d="M82.5059 59.0059H84.4473C84.4701 59.4889 84.6113 59.8581 84.8711 60.1133C85.1309 60.3639 85.5046 60.4893 85.9922 60.4893C86.3932 60.4893 86.7077 60.3867 86.9355 60.1816C87.1634 59.9766 87.2773 59.71 87.2773 59.3818C87.2773 59.0583 87.1429 58.7894 86.874 58.5752C86.6051 58.3564 86.1608 58.1445 85.541 57.9395C84.5931 57.6341 83.8867 57.2536 83.4219 56.7979C82.957 56.3421 82.7246 55.7246 82.7246 54.9453C82.7246 54.0749 83.0026 53.3708 83.5586 52.833C84.1146 52.2907 84.8688 52.0195 85.8213 52.0195C86.7555 52.0195 87.4938 52.2679 88.0361 52.7646C88.583 53.2614 88.877 53.9883 88.918 54.9453H86.9697C86.9561 54.5625 86.8398 54.264 86.6211 54.0498C86.4023 53.8356 86.1221 53.7285 85.7803 53.7285C85.4339 53.7285 85.1628 53.8197 84.9668 54.002C84.7708 54.1842 84.6729 54.4417 84.6729 54.7744C84.6729 54.9567 84.7025 55.1139 84.7617 55.2461C84.8255 55.3737 84.9372 55.4922 85.0967 55.6016C85.2607 55.7109 85.4316 55.8044 85.6094 55.8818C85.7917 55.9593 86.0537 56.0573 86.3955 56.1758C87.4255 56.5221 88.1546 56.93 88.583 57.3994C89.0114 57.8643 89.2256 58.4681 89.2256 59.2109C89.2256 60.1315 88.918 60.8584 88.3027 61.3916C87.6921 61.9202 86.9128 62.1846 85.9648 62.1846C84.8757 62.1846 84.0326 61.8952 83.4355 61.3164C82.8431 60.7376 82.5332 59.9674 82.5059 59.0059ZM92.7748 62V52.1973H98.4213V53.9951H94.6957V56.0664H97.9154V57.8711H94.6957V60.209H98.4213V62H92.7748ZM102.135 62V52.1973H107.781V53.9951H104.055V56.0664H107.275V57.8711H104.055V60.209H107.781V62H102.135ZM115.884 57.085C115.884 56.3604 116.01 55.6859 116.26 55.0615C116.511 54.4372 116.857 53.9017 117.299 53.4551C117.746 53.0085 118.284 52.6576 118.913 52.4023C119.546 52.1471 120.23 52.0195 120.963 52.0195C121.939 52.0195 122.811 52.2383 123.582 52.6758C124.356 53.1087 124.958 53.7103 125.386 54.4805C125.819 55.2507 126.036 56.1188 126.036 57.085C126.036 58.0557 125.819 58.9284 125.386 59.7031C124.958 60.4779 124.356 61.0863 123.582 61.5283C122.811 61.9658 121.939 62.1846 120.963 62.1846C119.984 62.1846 119.106 61.9658 118.332 61.5283C117.557 61.0863 116.955 60.4779 116.527 59.7031C116.099 58.9284 115.884 58.0557 115.884 57.085ZM117.887 57.085C117.887 58.0511 118.17 58.8441 118.735 59.4639C119.3 60.0791 120.043 60.3867 120.963 60.3867C121.879 60.3867 122.62 60.0768 123.185 59.457C123.75 58.8372 124.033 58.0465 124.033 57.085C124.033 56.1325 123.75 55.3486 123.185 54.7334C122.62 54.1182 121.879 53.8105 120.963 53.8105C120.043 53.8105 119.3 54.1182 118.735 54.7334C118.17 55.3486 117.887 56.1325 117.887 57.085ZM129.517 58.0488V52.1973H131.451V58.0488C131.451 58.8008 131.62 59.3796 131.957 59.7852C132.299 60.1862 132.816 60.3867 133.509 60.3867C134.192 60.3867 134.703 60.1862 135.04 59.7852C135.382 59.3841 135.553 58.8053 135.553 58.0488V52.1973H137.48V58.0488C137.48 59.3613 137.134 60.3799 136.441 61.1045C135.753 61.8245 134.776 62.1846 133.509 62.1846C132.237 62.1846 131.253 61.8245 130.556 61.1045C129.863 60.3799 129.517 59.3613 129.517 58.0488ZM141.447 62V52.1973H144.475C145.519 52.1973 146.353 52.4844 146.977 53.0586C147.606 53.6328 147.92 54.387 147.92 55.3213C147.92 55.9274 147.77 56.4606 147.469 56.9209C147.173 57.3812 146.754 57.7344 146.211 57.9805L148.337 62H146.136L144.236 58.3291H143.368V62H141.447ZM143.368 56.627H144.475C144.931 56.627 145.288 56.5153 145.548 56.292C145.813 56.0687 145.945 55.7451 145.945 55.3213C145.945 54.8883 145.813 54.5602 145.548 54.3369C145.288 54.109 144.931 53.9951 144.475 53.9951H143.368V56.627ZM156.516 62V52.1973H158.45V60.209H162.525V62H156.516ZM165.165 62L168.959 52.1973H171.071L174.865 62H172.78L171.966 59.833H168.063L167.25 62H165.165ZM168.665 58.1514H171.351L170.189 55.082L170.004 54.5352L169.827 55.082L168.665 58.1514ZM175.823 53.9951V52.1973H184.122V53.9951H180.93V62H179.009V53.9951H175.823ZM187.371 62V52.1973H193.017V53.9951H189.291V56.0664H192.511V57.8711H189.291V60.209H193.017V62H187.371ZM196.245 59.0059H198.186C198.209 59.4889 198.35 59.8581 198.61 60.1133C198.87 60.3639 199.244 60.4893 199.731 60.4893C200.132 60.4893 200.447 60.3867 200.675 60.1816C200.902 59.9766 201.016 59.71 201.016 59.3818C201.016 59.0583 200.882 58.7894 200.613 58.5752C200.344 58.3564 199.9 58.1445 199.28 57.9395C198.332 57.6341 197.626 57.2536 197.161 56.7979C196.696 56.3421 196.464 55.7246 196.464 54.9453C196.464 54.0749 196.742 53.3708 197.298 52.833C197.854 52.2907 198.608 52.0195 199.56 52.0195C200.495 52.0195 201.233 52.2679 201.775 52.7646C202.322 53.2614 202.616 53.9883 202.657 54.9453H200.709C200.695 54.5625 200.579 54.264 200.36 54.0498C200.141 53.8356 199.861 53.7285 199.519 53.7285C199.173 53.7285 198.902 53.8197 198.706 54.002C198.51 54.1842 198.412 54.4417 198.412 54.7744C198.412 54.9567 198.442 55.1139 198.501 55.2461C198.565 55.3737 198.676 55.4922 198.836 55.6016C199 55.7109 199.171 55.8044 199.348 55.8818C199.531 55.9593 199.793 56.0573 200.135 56.1758C201.165 56.5221 201.894 56.93 202.322 57.3994C202.75 57.8643 202.965 58.4681 202.965 59.2109C202.965 60.1315 202.657 60.8584 202.042 61.3916C201.431 61.9202 200.652 62.1846 199.704 62.1846C198.615 62.1846 197.772 61.8952 197.175 61.3164C196.582 60.7376 196.272 59.9674 196.245 59.0059ZM205.68 53.9951V52.1973H213.979V53.9951H210.786V62H208.865V53.9951H205.68ZM221.617 57.085C221.617 56.3604 221.743 55.6859 221.993 55.0615C222.244 54.4372 222.59 53.9017 223.032 53.4551C223.479 53.0085 224.017 52.6576 224.646 52.4023C225.279 52.1471 225.963 52.0195 226.696 52.0195C227.672 52.0195 228.544 52.2383 229.314 52.6758C230.089 53.1087 230.691 53.7103 231.119 54.4805C231.552 55.2507 231.769 56.1188 231.769 57.085C231.769 58.0557 231.552 58.9284 231.119 59.7031C230.691 60.4779 230.089 61.0863 229.314 61.5283C228.544 61.9658 227.672 62.1846 226.696 62.1846C225.716 62.1846 224.839 61.9658 224.064 61.5283C223.29 61.0863 222.688 60.4779 222.26 59.7031C221.831 58.9284 221.617 58.0557 221.617 57.085ZM223.62 57.085C223.62 58.0511 223.903 58.8441 224.468 59.4639C225.033 60.0791 225.776 60.3867 226.696 60.3867C227.612 60.3867 228.353 60.0768 228.918 59.457C229.483 58.8372 229.766 58.0465 229.766 57.085C229.766 56.1325 229.483 55.3486 228.918 54.7334C228.353 54.1182 227.612 53.8105 226.696 53.8105C225.776 53.8105 225.033 54.1182 224.468 54.7334C223.903 55.3486 223.62 56.1325 223.62 57.085ZM235.372 62V52.1973H240.93V53.9951H237.293V56.1895H240.39V57.9941H237.293V62H235.372ZM244.363 62V52.1973H249.921V53.9951H246.284V56.1895H249.381V57.9941H246.284V62H244.363ZM253.354 62V52.1973H259V53.9951H255.275V56.0664H258.494V57.8711H255.275V60.209H259V62H253.354ZM262.713 62V52.1973H265.742C266.785 52.1973 267.619 52.4844 268.244 53.0586C268.873 53.6328 269.187 54.387 269.187 55.3213C269.187 55.9274 269.037 56.4606 268.736 56.9209C268.44 57.3812 268.02 57.7344 267.478 57.9805L269.604 62H267.403L265.503 58.3291H264.634V62H262.713ZM264.634 56.627H265.742C266.198 56.627 266.555 56.5153 266.815 56.292C267.079 56.0687 267.212 55.7451 267.212 55.3213C267.212 54.8883 267.079 54.5602 266.815 54.3369C266.555 54.109 266.198 53.9951 265.742 53.9951H264.634V56.627Z" fill="white"/>
<rect x="302" y="57" width="30" height="2" rx="1" fill="white"/>
<defs>
<filter id="filter0_d_21_62" x="0" y="0" width="362" height="145" filterUnits="userSpaceOnUse" color-interpolation-filters="sRGB">
<feFlood flood-opacity="0" result="BackgroundImageFix"/>
<feColorMatrix in="SourceAlpha" type="matrix" values="0 0 0 0 0 0 0 0 0 0 0 0 0 0 0 0 0 0 127 0" result="hardAlpha"/>
<feOffset dx="5" dy="15"/>
<feGaussianBlur stdDeviation="20"/>
<feColorMatrix type="matrix" values="0 0 0 0 0 0 0 0 0 0.788235 0 0 0 0 0.878431 0 0 0 0.2 0"/>
<feBlend mode="normal" in2="BackgroundImageFix" result="effect1_dropShadow_21_62"/>
<feBlend mode="normal" in="SourceGraphic" in2="effect1_dropShadow_21_62" result="shape"/>
</filter>
</defs>
</svg>
